<?xml version="1.0" standalone="no"?>
<!DOCTYPE svg PUBLIC "-//W3C//DTD SVG 20010904//EN"
 "http://www.w3.org/TR/2001/REC-SVG-20010904/DTD/svg10.dtd">
<svg version="1.0" xmlns="http://www.w3.org/2000/svg"
 width="768.000000pt" height="403.000000pt" viewBox="0 0 768.000000 403.000000"
 preserveAspectRatio="xMidYMid meet">

<g transform="translate(0.000000,403.000000) scale(0.100000,-0.100000)"
fill="#000000" stroke="none">
<path d="M1141 3585 c-147 -42 -245 -100 -345 -205 -75 -80 -136 -194 -162
-305 -34 -149 -5 -340 74 -477 26 -44 32 -49 37 -33 25 83 82 145 148 161 25
6 27 10 22 36 -13 59 62 118 150 118 25 0 45 1 45 3 0 1 -11 24 -25 51 -14 27
-25 55 -25 63 0 7 -6 13 -13 13 -8 0 -22 9 -33 21 -26 28 -27 138 -2 166 10
10 22 42 28 70 13 62 61 131 99 146 18 6 31 21 37 41 26 90 224 73 224 -19 0
-10 -13 -12 -55 -8 l-55 6 0 -131 c0 -109 3 -131 16 -136 25 -10 26 -8 19 34
-4 22 -4 40 0 40 4 0 29 -16 55 -35 38 -28 129 -75 146 -75 2 0 4 16 4 36 0
28 4 35 17 32 24 -4 37 -57 28 -113 -5 -37 -12 -50 -34 -63 -16 -9 -34 -32
-41 -51 -7 -20 -21 -48 -32 -63 l-19 -28 34 0 c52 0 131 -27 156 -54 19 -20
23 -33 18 -59 -5 -33 -4 -35 36 -47 52 -15 112 -76 128 -131 l13 -41 18 24
c58 75 108 241 108 360 0 161 -77 343 -195 463 -133 134 -273 196 -460 201
-77 3 -126 -1 -164 -11z"/>
<path d="M4395 3576 c-236 -47 -416 -196 -504 -416 -94 -238 -52 -472 120
-665 125 -140 264 -209 461 -227 89 -9 119 -8 180 6 250 56 454 260 508 507 8
33 11 98 8 165 -7 177 -59 302 -178 428 -155 164 -387 243 -595 202z m168 -37
c38 -20 66 -50 72 -79 4 -19 15 -32 34 -38 50 -17 99 -69 117 -124 13 -40 16
-73 11 -149 -5 -106 -12 -124 -47 -142 -13 -7 -29 -29 -36 -50 -8 -21 -25 -52
-39 -69 -21 -25 -25 -40 -25 -94 0 -63 0 -64 34 -78 38 -16 66 -50 66 -83 0
-12 -13 -37 -29 -55 -26 -29 -28 -38 -24 -84 10 -100 -28 -124 -197 -124 -117
0 -159 12 -180 49 -13 25 -13 77 0 101 8 15 3 25 -25 53 -22 22 -35 45 -35 60
0 35 46 87 76 87 23 0 24 3 24 71 0 61 -4 75 -25 101 -13 16 -29 47 -35 68 -8
29 -17 41 -35 46 -35 9 -47 52 -49 167 -1 91 2 108 24 152 20 39 39 58 83 84
31 19 57 41 57 50 1 61 119 113 183 80z"/>
<path d="M6785 3370 c10 -11 20 -20 22 -20 2 0 -1 9 -7 20 -6 11 -16 20 -22
20 -6 0 -3 -9 7 -20z"/>
<path d="M6490 3314 c0 -5 18 -28 40 -49 22 -21 40 -35 40 -29 0 5 -18 28 -40
49 -22 21 -40 35 -40 29z"/>
<path d="M2479 3259 c-48 -18 -52 -45 -44 -321 3 -139 11 -260 16 -270 5 -9
25 -20 44 -24 32 -6 35 -9 35 -40 0 -20 8 -40 20 -52 16 -15 20 -32 21 -112 1
-120 12 -180 35 -197 29 -21 82 -16 109 12 23 22 25 32 25 119 0 84 2 97 19
106 27 14 37 13 55 -6 12 -12 16 -37 16 -103 0 -74 3 -93 21 -115 29 -37 89
-37 118 0 19 24 21 40 21 152 l0 126 49 45 c26 25 53 56 60 68 7 14 11 86 11
197 0 109 4 176 10 176 16 0 23 49 10 65 -32 39 39 64 73 27 26 -28 23 -123
-3 -140 -18 -11 -20 -23 -20 -112 0 -89 2 -100 20 -110 18 -10 20 -21 20 -114
0 -80 -3 -106 -15 -116 -20 -16 -20 -100 0 -126 8 -10 15 -38 15 -61 0 -23 5
-45 10 -48 6 -4 10 13 10 44 0 27 4 52 9 56 17 10 40 65 30 71 -5 3 -9 18 -9
34 0 15 -7 30 -15 34 -12 4 -15 26 -15 110 0 95 2 106 20 116 18 10 20 21 20
115 0 95 -2 104 -20 110 -17 5 -20 15 -20 71 0 56 -4 68 -25 89 -37 38 -70 32
-121 -20 -47 -47 -53 -65 -29 -85 12 -10 15 -45 15 -194 0 -197 -2 -202 -62
-239 -43 -27 -50 -51 -53 -190 -3 -141 -9 -157 -61 -157 -40 0 -54 35 -54 137
0 84 -2 93 -22 107 -12 9 -34 16 -49 16 -45 0 -57 -25 -61 -133 -3 -106 -14
-127 -63 -127 -46 0 -55 27 -55 161 0 113 2 125 20 137 15 9 20 23 20 52 0 40
0 40 40 40 39 0 40 -1 40 -34 0 -35 21 -66 45 -66 24 0 45 31 45 66 0 34 0 34
45 34 36 0 52 6 71 25 23 23 25 31 22 97 -2 40 -7 73 -13 73 -5 0 -11 -31 -13
-70 -2 -38 -8 -75 -14 -82 -15 -18 -418 -19 -436 -1 -17 17 -17 529 0 546 7 7
40 12 76 12 46 0 63 3 60 13 -6 15 -93 20 -129 6z m635 -210 c-8 -14 -34 -11
-34 4 0 8 3 17 7 20 9 9 34 -13 27 -24z m144 -188 c-3 -79 -5 -86 -24 -89 -19
-3 -22 3 -27 50 -4 29 -7 69 -7 89 0 33 2 36 30 36 l31 0 -3 -86z m-638 -256
c0 -32 -2 -35 -30 -35 -28 0 -30 3 -30 35 0 32 2 35 30 35 28 0 30 -3 30 -35z
m160 0 c0 -24 -5 -35 -15 -35 -10 0 -15 11 -15 35 0 24 5 35 15 35 10 0 15
-11 15 -35z m470 -117 c0 -7 -7 -21 -14 -31 -13 -16 -14 -16 -18 8 -3 13 -3
27 0 30 10 10 32 5 32 -7z"/>
<path d="M2667 3264 c-19 -19 2 -24 112 -24 86 0 122 -4 130 -13 6 -8 12 -77
13 -175 4 -218 22 -216 26 2 3 216 8 210 -155 214 -65 2 -121 0 -126 -4z"/>
<path d="M3078 3250 c-15 -17 -15 -20 1 -34 15 -14 18 -14 28 2 8 13 7 22 -1
34 -11 16 -14 15 -28 -2z"/>
<path d="M6880 3205 c-19 -19 -29 -35 -24 -35 6 0 23 13 39 30 l28 29 34 -29
c35 -31 57 -37 68 -20 3 6 -4 10 -18 10 -13 0 -34 11 -47 25 -31 33 -40 32
-80 -10z"/>
<path d="M2518 3143 c7 -3 16 -2 19 1 4 3 -2 6 -13 5 -11 0 -14 -3 -6 -6z"/>
<path d="M2634 3125 c-47 -72 52 -146 105 -79 25 32 26 52 5 82 -22 32 -88 31
-110 -3z m76 0 c0 -8 7 -15 15 -15 8 0 15 -9 15 -20 0 -11 -7 -20 -15 -20 -8
0 -15 -7 -15 -15 0 -8 -9 -15 -20 -15 -11 0 -20 7 -20 15 0 8 -7 15 -15 15
-22 0 -19 18 8 46 25 27 47 31 47 9z"/>
<path d="M6835 3109 c-11 -17 1 -21 15 -4 8 9 8 15 2 15 -6 0 -14 -5 -17 -11z"/>
<path d="M2520 3100 c0 -5 5 -10 10 -10 6 0 10 5 10 10 0 6 -4 10 -10 10 -5 0
-10 -4 -10 -10z"/>
<path d="M2518 3053 c7 -3 16 -2 19 1 4 3 -2 6 -13 5 -11 0 -14 -3 -6 -6z"/>
<path d="M6433 3028 l-22 -21 85 -91 84 -90 -122 -123 c-68 -68 -128 -123
-135 -123 -6 0 -20 11 -31 25 -11 14 -24 25 -29 25 -13 0 -48 -39 -41 -45 3
-3 11 1 18 10 17 21 30 19 61 -11 l27 -26 227 227 c241 241 232 235 272 185 7
-8 13 -10 13 -4 0 12 -42 54 -55 54 -5 0 -31 -21 -57 -47 l-48 -47 -23 22
c-28 26 -35 27 -59 5 -18 -16 -21 -14 -76 40 -32 31 -60 57 -63 57 -2 0 -14
-10 -26 -22z"/>
<path d="M2515 3010 c-3 -5 1 -10 9 -10 9 0 16 5 16 10 0 6 -4 10 -9 10 -6 0
-13 -4 -16 -10z"/>
<path d="M6850 2957 c0 -4 12 -21 27 -37 26 -30 56 -39 68 -20 3 6 -4 10 -16
10 -13 0 -36 12 -51 27 -15 15 -28 24 -28 20z"/>
<path d="M2530 2915 l0 -25 160 0 160 0 0 25 0 25 -160 0 -160 0 0 -25z"/>
<path d="M6390 2907 c0 -7 20 -33 45 -57 32 -31 48 -41 55 -34 8 8 -2 25 -34
58 -46 46 -66 57 -66 33z"/>
<path d="M6337 2863 c-8 -7 31 -53 45 -53 15 0 8 27 -10 43 -21 19 -26 20 -35
10z"/>
<path d="M6286 2812 c-8 -13 23 -52 40 -52 20 0 18 24 -4 43 -21 19 -28 21
-36 9z"/>
<path d="M6234 2759 c-7 -12 74 -99 93 -99 24 0 13 24 -29 67 -45 45 -53 50
-64 32z"/>
<path d="M6175 2710 c10 -11 20 -20 23 -20 3 0 -3 9 -13 20 -10 11 -20 20 -23
20 -3 0 3 -9 13 -20z"/>
<path d="M1480 2587 c-23 -11 -25 -19 -28 -90 l-3 -77 36 0 35 0 0 90 c0 50
-3 90 -7 90 -5 0 -19 -6 -33 -13z"/>
<path d="M6165 2510 c-21 -22 -47 -40 -56 -40 -9 0 -22 -6 -29 -14 -6 -8 -20
-16 -30 -18 -22 -4 -225 -198 -207 -198 7 0 53 40 102 90 56 56 105 96 134
109 37 16 148 111 130 111 -3 0 -23 -18 -44 -40z"/>
<path d="M1007 1743 c-4 -3 -7 -17 -7 -30 0 -22 -3 -23 -79 -23 -109 0 -123
-12 -119 -100 3 -59 5 -65 28 -70 24 -6 42 -40 21 -40 -6 0 -11 -11 -11 -24 0
-17 -7 -27 -22 -31 -33 -10 -68 -45 -84 -82 -21 -48 -20 -531 0 -559 14 -18
31 -19 389 -22 311 -2 376 0 386 11 8 11 11 141 9 493 l-3 479 -64 3 c-45 2
-67 -1 -72 -10 -7 -10 -12 -11 -29 0 -21 13 -331 18 -343 5z m273 -78 c0 -8 5
-15 10 -15 22 0 20 -29 -4 -55 l-26 -28 -25 27 c-28 30 -33 56 -10 56 8 0 15
7 15 15 0 8 9 15 20 15 11 0 20 -7 20 -15z m-226 -1 c12 -5 16 -21 16 -65 l0
-59 -125 0 -125 0 0 55 c0 41 4 56 18 64 18 11 190 15 216 5z m446 -444 l0
-430 -167 0 -168 0 3 266 c2 223 0 271 -13 296 -8 17 -15 34 -15 38 0 11 337
259 353 260 4 0 7 -193 7 -430z m-480 225 c0 -21 9 -29 44 -45 60 -25 75 -58
83 -175 l6 -95 -104 -2 -104 -2 103 -3 c81 -3 102 -7 102 -18 0 -12 -16 -15
-72 -17 l-73 -2 73 -3 c55 -3 72 -7 72 -18 0 -12 -17 -15 -72 -17 l-73 -2 74
-3 74 -4 -7 -117 c-4 -64 -11 -120 -15 -125 -4 -4 -90 -6 -192 -5 l-184 3 -3
260 c-3 286 1 309 56 335 15 7 34 16 42 20 8 4 16 19 18 34 3 26 5 26 78 26
73 0 74 0 74 -25z"/>
<path d="M1298 1163 c23 -2 59 -2 80 0 20 2 1 4 -43 4 -44 0 -61 -2 -37 -4z"/>
<path d="M1298 1123 c23 -2 59 -2 80 0 20 2 1 4 -43 4 -44 0 -61 -2 -37 -4z"/>
<path d="M6310 1719 c-20 -17 -32 -19 -68 -14 -45 7 -82 -12 -82 -41 0 -19
-41 -44 -72 -44 -31 0 -48 -24 -48 -68 0 -23 -9 -38 -37 -60 l-38 -30 13 -47
c11 -42 10 -49 -8 -75 -27 -38 -25 -54 8 -85 23 -21 27 -33 27 -77 0 -51 1
-53 39 -73 26 -13 43 -31 49 -50 15 -45 25 -54 70 -57 l42 -3 3 -47 3 -48
-124 0 c-110 0 -129 -3 -168 -23 -48 -26 -83 -70 -98 -125 -9 -31 -7 -38 22
-74 158 -197 477 -293 712 -214 115 39 195 87 275 166 59 58 70 74 70 102 0
50 -39 108 -94 143 -47 28 -56 30 -173 34 l-123 3 0 45 0 45 33 -5 c45 -7 65
7 77 52 8 30 17 42 43 51 46 19 57 36 51 84 -5 35 -2 44 20 65 30 28 34 72 10
92 -16 13 -15 45 1 95 5 17 -2 31 -34 62 -30 29 -41 49 -41 70 0 35 -15 49
-59 58 -23 5 -40 18 -58 47 -25 39 -25 39 -74 33 -41 -6 -55 -3 -78 14 -36 25
-59 25 -91 -1z m111 -475 c40 -27 90 -44 133 -44 26 0 28 -2 21 -27 -21 -85
-109 -164 -201 -179 -87 -13 -178 40 -220 130 -35 74 -32 86 16 86 46 0 98 19
138 50 31 25 59 21 113 -16z"/>
<path d="M2820 1715 c-45 -11 -63 -23 -100 -63 -25 -27 -57 -56 -72 -65 -33
-20 -53 -57 -61 -111 -4 -22 -18 -51 -32 -66 -35 -36 -43 -90 -20 -139 16 -35
16 -41 1 -69 -20 -39 -20 -69 -1 -115 13 -32 13 -40 -1 -73 -11 -26 -14 -53
-10 -81 4 -35 3 -43 -10 -43 -26 0 -84 -51 -105 -91 -32 -64 -26 -88 39 -152
32 -31 61 -57 65 -57 4 0 7 16 7 35 0 28 9 42 51 82 33 31 63 73 87 123 20 41
42 78 47 82 15 11 73 10 80 -2 3 -6 -5 -39 -19 -74 -14 -36 -26 -67 -26 -70 0
-2 39 -28 88 -56 48 -28 94 -56 103 -62 14 -9 31 -3 90 32 41 24 88 52 106 62
l32 19 -30 71 c-16 39 -29 72 -29 74 0 2 17 4 38 4 38 0 38 -1 77 -80 26 -53
55 -96 87 -125 42 -39 48 -50 48 -84 0 -22 4 -42 8 -45 10 -6 102 79 127 117
35 55 -18 165 -96 197 -27 12 -30 17 -26 44 3 17 -2 50 -10 74 -12 37 -12 48
1 86 14 40 14 50 0 95 -13 45 -13 56 0 95 18 52 10 92 -28 137 -14 17 -26 43
-26 57 0 34 -30 84 -65 108 -15 11 -34 28 -43 39 -54 63 -82 82 -138 93 -73
15 -163 14 -234 -3z m160 -440 c67 -39 109 -55 148 -55 47 0 51 -9 28 -64 -34
-81 -138 -156 -218 -156 -105 0 -199 79 -222 187 -7 32 -7 32 41 37 26 4 73
19 103 35 63 34 85 37 120 16z"/>
<path d="M721 1596 c-9 -10 -8 -16 3 -25 10 -9 16 -8 25 3 9 10 8 16 -3 25
-10 9 -16 8 -25 -3z"/>
<path d="M4365 1575 c-33 -32 -31 -60 5 -96 16 -16 27 -36 24 -43 -6 -15 21
-46 40 -46 27 0 103 61 125 100 29 52 25 84 -11 88 -15 2 -35 -1 -45 -6 -13
-8 -24 -5 -42 9 -32 26 -67 24 -96 -6z m90 -26 c11 -18 -4 -57 -25 -64 -31
-10 -60 12 -60 46 0 46 60 59 85 18z"/>
<path d="M4643 1525 c-26 -18 -45 -72 -43 -122 3 -59 2 -60 -30 -55 -35 5 -60
-12 -60 -40 0 -56 95 -165 164 -188 33 -10 40 -10 57 6 15 13 19 27 16 49 -3
19 1 37 11 48 11 12 17 37 17 73 0 68 -19 76 -23 9 -5 -78 -16 -81 -72 -21
l-50 53 0 75 c0 83 14 108 62 108 34 0 56 -27 60 -75 3 -43 21 -54 26 -16 12
83 -70 141 -135 96z m-11 -240 c46 -34 95 -115 83 -135 -9 -15 -74 15 -113 53
-97 92 -71 160 30 82z"/>
<path d="M4170 1440 c-26 -26 -26 -81 -2 -103 25 -23 75 -21 96 2 10 10 18 34
18 52 2 60 -70 91 -112 49z m80 -25 c15 -19 6 -61 -16 -69 -27 -10 -53 3 -60
30 -8 30 11 54 41 54 12 0 28 -7 35 -15z"/>
<path d="M4237 1241 c-82 -81 -91 -93 -91 -126 0 -53 42 -89 95 -82 26 3 39 1
43 -8 3 -8 23 -19 45 -26 38 -11 39 -13 25 -34 -20 -31 -93 -29 -127 3 -29 27
-71 28 -97 2 -41 -41 -12 -120 45 -120 17 0 28 -7 34 -23 13 -33 35 -48 81
-54 22 -3 40 -9 40 -14 0 -19 68 -83 105 -100 99 -45 221 -2 273 96 21 41 21
145 -1 179 -9 14 -17 38 -17 54 0 28 -41 82 -61 82 -5 0 -9 9 -9 20 0 12 -11
32 -25 45 -21 22 -33 25 -95 25 -40 0 -70 -4 -70 -10 0 -6 26 -10 59 -10 73 0
90 -6 102 -37 8 -22 4 -30 -28 -60 l-38 -34 -96 3 c-79 2 -101 7 -118 22 l-21
19 75 78 c65 66 75 82 75 112 0 27 -7 41 -31 61 -51 44 -72 36 -172 -63z m151
43 c33 -23 28 -59 -15 -105 l-38 -40 -40 41 -40 41 42 40 c47 43 58 46 91 23z
m161 -329 c18 -30 25 -35 59 -35 21 0 43 5 48 10 18 18 36 -16 41 -72 4 -61
-22 -123 -66 -155 -85 -64 -208 -44 -261 42 l-20 33 21 37 c21 35 21 38 5 78
-16 41 -16 41 11 69 23 24 34 28 84 28 55 0 58 -1 78 -35z m-341 -7 c30 -30 0
-75 -43 -64 -19 5 -25 13 -25 35 0 15 3 31 7 34 11 11 48 8 61 -5z m124 -45
c37 -33 11 -103 -39 -103 -12 0 -32 9 -43 20 -16 16 -18 24 -9 47 21 56 55 69
91 36z"/>
<path d="M4101 1256 c-16 -19 9 -40 26 -21 10 10 9 16 -1 24 -10 8 -16 8 -25
-3z"/>
<path d="M4852 1231 c-10 -6 -10 -10 3 -21 12 -10 18 -10 30 0 13 11 13 15 3
21 -7 5 -15 9 -18 9 -3 0 -11 -4 -18 -9z"/>
<path d="M1563 1115 c-9 -10 -9 -15 3 -19 9 -3 22 -3 30 2 11 6 10 9 -4 18
-13 8 -20 8 -29 -1z"/>
<path d="M4771 1114 c-63 -45 -58 -138 10 -178 83 -49 182 50 138 137 -28 55
-100 74 -148 41z m110 -33 c36 -36 37 -73 4 -106 -48 -49 -135 -18 -135 47 0
81 75 114 131 59z"/>
</g>
</svg>
