<?xml version="1.0" standalone="no"?>
<!DOCTYPE svg PUBLIC "-//W3C//DTD SVG 20010904//EN"
 "http://www.w3.org/TR/2001/REC-SVG-20010904/DTD/svg10.dtd">
<svg version="1.0" xmlns="http://www.w3.org/2000/svg"
 width="182pt" height="44pt" viewBox="0 0 182 44"
 preserveAspectRatio="xMidYMid meet">

<g transform="translate(0.000000,1809.000000) scale(0.100000,-0.100000)"
fill="#000000" stroke="none">
<path d="M22890 15220 l0 -2870 2960 0 2960 0 0 2870 0 2870 -2960 0 -2960 0
0 -2870z"/>
<path d="M16690 9045 c0 -2565 2 -2955 14 -2955 8 0 198 -18 423 -40 4306
-419 7096 -577 9553 -540 894 13 1241 22 1238 31 -2 6 -4507 4588 -5566 5660
l-273 277 -167 6 c-554 20 -949 46 -1652 107 -1256 108 -2745 278 -3465 394
-49 8 -93 15 -97 15 -5 0 -8 -1330 -8 -2955z"/>
<path d="M18460 11994 c85 -12 3146 -266 3590 -298 118 -9 242 -18 274 -20
l59 -4 150 -149 c190 -189 2635 -2673 4167 -4235 l1175 -1198 3528 0 3527 0 0
2955 0 2955 -8247 -1 c-4537 -1 -8237 -4 -8223 -5z"/>
<path d="M1636 11849 c-786 -70 -1439 -650 -1596 -1417 -114 -560 42 -1140
422 -1572 201 -228 468 -407 738 -494 58 -19 339 -103 625 -186 309 -91 552
-168 600 -190 183 -84 328 -248 384 -434 106 -347 -90 -739 -435 -869 l-59
-22 -1072 -3 -1073 -2 0 -450 0 -450 1224 0 c763 0 1263 4 1327 10 238 24 470
89 674 190 605 299 1010 876 1094 1560 16 123 13 405 -4 554 -43 367 -177 735
-362 996 -88 124 -255 289 -369 367 -166 113 -241 143 -917 369 -351 117 -658
224 -681 238 -65 38 -151 131 -190 206 -162 308 -10 673 329 788 l80 27 833 3
832 3 0 394 0 395 -1152 -1 c-634 -1 -1197 -6 -1252 -10z"/>
<path d="M12027 11849 c-443 -36 -871 -245 -1171 -571 -216 -234 -371 -539
-436 -856 -160 -786 231 -1596 945 -1954 145 -73 164 -80 804 -267 320 -94
608 -182 640 -195 245 -100 411 -357 411 -639 0 -119 -22 -213 -78 -327 -39
-81 -60 -109 -136 -185 -64 -64 -112 -102 -162 -128 -136 -70 -72 -67 -1241
-67 l-1053 0 0 -450 0 -451 1293 4 c1424 3 1338 -1 1593 67 756 201 1330 837
1459 1620 38 228 27 562 -25 821 -121 595 -432 1040 -885 1263 -81 40 -278
110 -750 266 -352 117 -660 224 -685 238 -64 37 -145 116 -184 181 -57 93 -79
172 -79 281 -1 250 144 450 390 537 l78 28 833 3 832 3 0 394 0 395 -1147 -1
c-632 -1 -1192 -5 -1246 -10z"/>
<path d="M5083 9643 l3 -2178 27 -125 c93 -421 287 -770 593 -1072 378 -373
868 -605 1444 -685 191 -26 559 -24 749 6 639 98 1189 405 1560 871 242 304
400 681 440 1052 8 65 11 793 11 2203 l0 2105 -430 0 -430 0 -2 -2197 -3
-2198 -23 -80 c-135 -479 -649 -806 -1169 -746 -265 31 -474 126 -653 298
-129 122 -209 256 -264 438 l-21 70 -3 2208 -2 2207 -915 0 -915 0 3 -2177z"/>
<path d="M28376 5643 c70 -76 159 -170 196 -209 l68 -72 0 -233 c0 -515 68
-1536 176 -2649 51 -536 125 -1180 139 -1215 2 -5 4 1008 4 2253 l1 2262 -356
0 -356 0 128 -137z"/>
<path d="M22423 4904 c30 -1499 160 -3001 363 -4194 56 -335 125 -693 133
-703 4 -4 1328 -6 2942 -5 l2935 3 -28 180 c-181 1185 -417 3525 -494 4903 -4
67 -10 122 -13 122 -3 0 -76 -4 -161 -10 -722 -45 -1937 -80 -2770 -80 -681 0
-1434 20 -2060 56 -288 16 -777 51 -824 59 l-29 5 6 -336z"/>
</g>
</svg>
