<?xml version="1.0" standalone="no"?>
<!DOCTYPE svg PUBLIC "-//W3C//DTD SVG 20010904//EN"
 "http://www.w3.org/TR/2001/REC-SVG-20010904/DTD/svg10.dtd">
<svg version="1.0" xmlns="http://www.w3.org/2000/svg"
 width="1280.000000pt" height="640.000000pt" viewBox="0 0 1280.000000 640.000000"
 preserveAspectRatio="xMidYMid meet">
<metadata>
Created by potrace 1.15, written by Peter Selinger 2001-2017
</metadata>
<g transform="translate(0.000000,640.000000) scale(0.100000,-0.100000)"
fill="#000000" stroke="none">
<path d="M2830 4900 c-43 -60 -90 -238 -119 -455 -17 -121 -41 -392 -41 -462
0 -34 -3 -68 -6 -77 -6 -14 -121 -16 -1204 -16 l-1199 0 -5 43 c-3 23 -13 107
-21 187 -28 253 -59 398 -94 441 -16 20 -18 20 -34 5 -36 -37 -66 -200 -89
-496 -17 -218 -17 -1089 0 -1350 25 -377 56 -645 92 -792 19 -76 44 -128 61
-128 43 0 88 241 104 550 3 63 8 143 11 178 l6 62 1194 0 1194 0 4 -22 c3 -13
10 -84 16 -158 34 -398 105 -748 180 -877 39 -69 64 -76 105 -31 57 62 109
273 139 568 9 85 19 175 22 199 l6 44 2746 -4 2747 -4 37 95 c21 52 69 180
108 283 87 236 115 289 155 298 17 4 153 12 304 18 150 6 277 13 281 16 4 3
11 43 15 90 l7 85 1615 0 1616 0 -59 30 -59 30 -1557 0 c-1474 0 -1557 1
-1562 18 -2 9 -8 49 -11 89 l-7 72 -36 5 c-21 3 -100 10 -177 16 -178 14 -335
37 -399 58 -64 21 -71 33 -171 307 -43 115 -88 233 -100 262 -23 51 -23 51
-77 57 -47 5 -5184 23 -5380 19 l-77 -2 -5 32 c-3 18 -12 82 -21 142 -43 300
-107 527 -164 584 -30 30 -65 27 -91 -9z"/>
</g>
</svg>
